<svg width="15" height="11" viewBox="0 0 15 11" fill="none" xmlns="http://www.w3.org/2000/svg">
<path d="M14.8242 1.04373L5.2246 10.8208C5.16888 10.8776 5.10271 10.9227 5.02987 10.9534C4.95704 10.9842 4.87897 11 4.80012 11C4.72127 11 4.6432 10.9842 4.57037 10.9534C4.49753 10.9227 4.43136 10.8776 4.37564 10.8208L0.175826 6.54332C0.0632464 6.42866 0 6.27315 0 6.11099C0 5.94884 0.0632464 5.79333 0.175826 5.67867C0.288405 5.564 0.441096 5.49959 0.600307 5.49959C0.759518 5.49959 0.912209 5.564 1.02479 5.67867L4.80012 9.52456L13.9752 0.179076C14.0878 0.0644154 14.2405 -1.20815e-09 14.3997 0C14.5589 1.20815e-09 14.7116 0.0644154 14.8242 0.179076C14.9368 0.293737 15 0.44925 15 0.611405C15 0.77356 14.9368 0.929074 14.8242 1.04373Z" fill="white"/>
</svg>
