<svg width="56" height="56" viewBox="0 0 56 56" fill="none" xmlns="http://www.w3.org/2000/svg">
<g clip-path="url(#clip0_1_288)">
<mask id="mask0_1_288" style="mask-type:luminance" maskUnits="userSpaceOnUse" x="0" y="0" width="56" height="56">
<path d="M56 0H0V56H56V0Z" fill="white"/>
</mask>
<g mask="url(#mask0_1_288)">
<path d="M28 56C43.464 56 56 43.464 56 28C56 12.536 43.464 0 28 0C12.536 0 0 12.536 0 28C0 43.464 12.536 56 28 56Z" fill="#F80C18"/>
</g>
<path d="M28 22C26.8133 22 25.6533 22.3519 24.6666 23.0112C23.6799 23.6705 22.9108 24.6075 22.4567 25.7039C22.0026 26.8003 21.8838 28.0067 22.1153 29.1705C22.3468 30.3344 22.9182 31.4035 23.7574 32.2426C24.5965 33.0818 25.6656 33.6532 26.8295 33.8847C27.9933 34.1162 29.1997 33.9974 30.2961 33.5433C31.3925 33.0892 32.3295 32.3201 32.9888 31.3334C33.6481 30.3467 34 29.1867 34 28C33.9983 26.4092 33.3657 24.884 32.2408 23.7592C31.116 22.6343 29.5908 22.0017 28 22ZM28 32C27.2089 32 26.4355 31.7654 25.7777 31.3259C25.1199 30.8864 24.6072 30.2616 24.3045 29.5307C24.0017 28.7998 23.9225 27.9956 24.0769 27.2196C24.2312 26.4437 24.6122 25.731 25.1716 25.1716C25.731 24.6122 26.4437 24.2312 27.2196 24.0769C27.9956 23.9225 28.7998 24.0017 29.5307 24.3045C30.2616 24.6072 30.8864 25.1199 31.3259 25.7777C31.7654 26.4355 32 27.2089 32 28C32 29.0609 31.5786 30.0783 30.8284 30.8284C30.0783 31.5786 29.0609 32 28 32ZM34 15H22C20.1441 15.002 18.3648 15.7401 17.0524 17.0524C15.7401 18.3648 15.002 20.1441 15 22V34C15.002 35.8559 15.7401 37.6352 17.0524 38.9476C18.3648 40.2599 20.1441 40.998 22 41H34C35.8559 40.998 37.6352 40.2599 38.9476 38.9476C40.2599 37.6352 40.998 35.8559 41 34V22C40.998 20.1441 40.2599 18.3648 38.9476 17.0524C37.6352 15.7401 35.8559 15.002 34 15ZM39 34C39 35.3261 38.4732 36.5979 37.5355 37.5355C36.5979 38.4732 35.3261 39 34 39H22C20.6739 39 19.4021 38.4732 18.4645 37.5355C17.5268 36.5979 17 35.3261 17 34V22C17 20.6739 17.5268 19.4021 18.4645 18.4645C19.4021 17.5268 20.6739 17 22 17H34C35.3261 17 36.5979 17.5268 37.5355 18.4645C38.4732 19.4021 39 20.6739 39 22V34ZM36 21.5C36 21.7967 35.912 22.0867 35.7472 22.3334C35.5824 22.58 35.3481 22.7723 35.074 22.8858C34.7999 22.9994 34.4983 23.0291 34.2074 22.9712C33.9164 22.9133 33.6491 22.7704 33.4393 22.5607C33.2296 22.3509 33.0867 22.0836 33.0288 21.7926C32.9709 21.5017 33.0007 21.2001 33.1142 20.926C33.2277 20.6519 33.42 20.4176 33.6666 20.2528C33.9133 20.088 34.2033 20 34.5 20C34.8978 20 35.2794 20.158 35.5607 20.4393C35.842 20.7206 36 21.1022 36 21.5Z" fill="white"/>
</g>
<defs>
<clipPath id="clip0_1_288">
<rect width="56" height="56" fill="white"/>
</clipPath>
</defs>
</svg>
