<svg width="56" height="56" viewBox="0 0 56 56" fill="none" xmlns="http://www.w3.org/2000/svg">
<g clip-path="url(#clip0_1_306)">
<mask id="mask0_1_306" style="mask-type:luminance" maskUnits="userSpaceOnUse" x="0" y="0" width="56" height="56">
<path d="M56 0H0V56H56V0Z" fill="white"/>
</mask>
<g mask="url(#mask0_1_306)">
<path d="M28 56C43.464 56 56 43.464 56 28C56 12.536 43.464 0 28 0C12.536 0 0 12.536 0 28C0 43.464 12.536 56 28 56Z" fill="#F80C18"/>
<path fill-rule="evenodd" clip-rule="evenodd" d="M15.7186 27.6098C22.4295 24.7874 26.9045 22.9267 29.1435 22.0277C35.5365 19.4608 36.865 19.0149 37.7308 19.0002C37.9213 18.9969 38.347 19.0425 38.6228 19.2585C38.8558 19.441 38.9198 19.6874 38.9505 19.8603C38.981 20.0333 39.0193 20.4273 38.989 20.7352C38.6425 24.249 37.1435 32.7763 36.3808 36.7118C36.058 38.377 35.4228 38.9355 34.8075 38.99C33.4708 39.1088 32.4555 38.1373 31.1608 37.318C29.1348 36.0358 27.9903 35.2378 26.0235 33.9868C23.7507 32.5408 25.224 31.7463 26.5193 30.4475C26.8583 30.1075 32.7485 24.9359 32.8625 24.4667C32.8768 24.408 32.89 24.1893 32.7553 24.0738C32.6208 23.9583 32.422 23.9978 32.2788 24.0292C32.0755 24.0737 28.8388 26.139 22.5686 30.2248C21.6499 30.8338 20.8177 31.1305 20.0721 31.115C19.2502 31.0978 17.6691 30.6663 16.4937 30.2975C15.0521 29.845 13.9063 29.606 14.0061 28.8375C14.058 28.4375 14.6289 28.0283 15.7186 27.6098Z" fill="white"/>
</g>
</g>
<defs>
<clipPath id="clip0_1_306">
<rect width="56" height="56" fill="white"/>
</clipPath>
</defs>
</svg>
