<svg width="12" height="12" viewBox="0 0 12 12" fill="none" xmlns="http://www.w3.org/2000/svg">
<path d="M10.8753 10.1592C10.9214 10.2056 10.958 10.2607 10.9829 10.3214C11.0079 10.382 11.0207 10.447 11.0207 10.5127C11.0207 10.5783 11.0079 10.6433 10.9829 10.704C10.958 10.7647 10.9214 10.8198 10.8753 10.8662C10.8292 10.9126 10.7744 10.9494 10.7142 10.9746C10.6539 10.9997 10.5894 11.0126 10.5242 11.0126C10.4589 11.0126 10.3944 10.9997 10.3341 10.9746C10.2739 10.9494 10.2191 10.9126 10.173 10.8662L5.21007 5.86958C5.16393 5.82318 5.12732 5.76807 5.10235 5.70741C5.07737 5.64676 5.06451 5.58174 5.06451 5.51607C5.06451 5.45041 5.07737 5.38539 5.10235 5.32473C5.12732 5.26408 5.16393 5.20897 5.21007 5.16256L10.173 0.16596C10.2661 0.0722031 10.3925 0.0195312 10.5242 0.0195312C10.6559 0.0195313 10.7822 0.0722031 10.8753 0.16596C10.9684 0.259716 11.0207 0.386878 11.0207 0.51947C11.0207 0.652061 10.9684 0.779223 10.8753 0.872979L6.26284 5.51607L10.8753 10.1592ZM1.29989 5.51607L5.91233 0.872979C6.00545 0.779223 6.05777 0.652061 6.05777 0.51947C6.05777 0.386878 6.00545 0.259716 5.91233 0.16596C5.8192 0.0722031 5.6929 0.0195313 5.5612 0.0195312C5.4295 0.0195312 5.3032 0.0722031 5.21007 0.16596L0.247119 5.16256C0.200975 5.20897 0.164369 5.26408 0.139394 5.32473C0.114418 5.38539 0.101563 5.45041 0.101562 5.51607C0.101563 5.58174 0.114418 5.64676 0.139394 5.70741C0.164369 5.76807 0.200975 5.82318 0.247119 5.86958L5.21007 10.8662C5.25618 10.9126 5.31092 10.9494 5.37117 10.9746C5.43142 10.9997 5.49599 11.0126 5.5612 11.0126C5.62641 11.0126 5.69098 10.9997 5.75123 10.9746C5.81148 10.9494 5.86622 10.9126 5.91233 10.8662C5.95844 10.8198 5.99502 10.7647 6.01997 10.704C6.04493 10.6433 6.05777 10.5783 6.05777 10.5127C6.05777 10.447 6.04493 10.382 6.01997 10.3214C5.99502 10.2607 5.95844 10.2056 5.91233 10.1592L1.29989 5.51607Z" fill="#F80C18"/>
</svg>
