<svg width="12" height="12" viewBox="0 0 12 12" fill="none" xmlns="http://www.w3.org/2000/svg">
<path d="M6.63878 5.86958L1.67583 10.8662C1.5827 10.9599 1.4564 11.0126 1.3247 11.0126C1.193 11.0126 1.06669 10.9599 0.973567 10.8662C0.880442 10.7724 0.828125 10.6453 0.828125 10.5127C0.828125 10.3801 0.880442 10.2529 0.973567 10.1592L5.58601 5.51607L0.973567 0.872979C0.880442 0.779223 0.828125 0.652061 0.828125 0.51947C0.828125 0.386878 0.880442 0.259716 0.973567 0.16596C1.06669 0.0722031 1.193 0.0195312 1.3247 0.0195312C1.4564 0.0195312 1.5827 0.0722031 1.67583 0.16596L6.63878 5.16256C6.68492 5.20897 6.72153 5.26408 6.7465 5.32473C6.77148 5.38539 6.78433 5.45041 6.78433 5.51607C6.78433 5.58174 6.77148 5.64676 6.7465 5.70741C6.72153 5.76807 6.68492 5.82318 6.63878 5.86958ZM11.6017 5.16256L6.63878 0.16596C6.54565 0.0722031 6.41935 0.0195312 6.28765 0.0195312C6.15595 0.0195312 6.02964 0.0722031 5.93652 0.16596C5.84339 0.259716 5.79108 0.386878 5.79108 0.51947C5.79108 0.652061 5.84339 0.779223 5.93652 0.872979L10.549 5.51607L5.93652 10.1592C5.84339 10.2529 5.79108 10.3801 5.79108 10.5127C5.79108 10.6453 5.84339 10.7724 5.93652 10.8662C6.02964 10.9599 6.15595 11.0126 6.28765 11.0126C6.41935 11.0126 6.54565 10.9599 6.63878 10.8662L11.6017 5.86958C11.6479 5.82318 11.6845 5.76807 11.7095 5.70741C11.7344 5.64676 11.7473 5.58174 11.7473 5.51607C11.7473 5.45041 11.7344 5.38539 11.7095 5.32473C11.6845 5.26408 11.6479 5.20897 11.6017 5.16256Z" fill="#F80C18"/>
</svg>
